# xmcd CD database file
# Copyright (C) 1993-1998 Ti Kan
#
# Track frame offsets:
#	182
#	20500
#	44352
#	61867
#	77807
#	89365
#	102077
#	114890
#	128802
#	143135
#	165190
#	179710
#	199380
#	218417
#
# Disc length: 3112 seconds
#
# Revision: 2
# Processed by: cddbd v1.4b41PL1 Copyright (c) Steve Scherf et al.
# Submitted via: CDValet v3.31 - Copyright (c) 1997 Greg Leichner
#
DISCID=b60c260e
DTITLE=Fatima Guedes - Grande Tempo
DYEAR=1900
DGENRE=
TTITLE0=Minha Nossa Senhora
TTITLE1=O Dia Em Que Faremos Contato
TTITLE2=Maos de Jardineiro
TTITLE3=Grande Tempo
TTITLE4=O Coco do Coco
TTITLE5=So Doi Quando Eu Rio
TTITLE6=Lua Brasileira
TTITLE7=Nas Nuvens
TTITLE8=A Dois
TTITLE9=Enluarada
TTITLE10=Caos-Brasil
TTITLE11=Sem Saida
TTITLE12=Samba de um Breque
TTITLE13=Ele
EXTD=
EXTT0=
EXTT1=
EXTT2=
EXTT3=
EXTT4=
EXTT5=
EXTT6=
EXTT7=
EXTT8=
EXTT9=
EXTT10=
EXTT11=
EXTT12=
EXTT13=
PLAYORDER=
